<svg xmlns="http://www.w3.org/2000/svg" width="34" height="34" viewBox="0 0 34 34">
  <g id="组_996" data-name="组 996" transform="translate(-35.5 -151)">
    <g id="组_142" data-name="组 142" transform="translate(-50 183)">
      <circle id="椭圆_4" data-name="椭圆 4" cx="17" cy="17" r="17" transform="translate(85.5 -32)" fill="#2196f3" opacity="0.2"/>
    </g>
    <g id="组_983" data-name="组 983" transform="translate(-106.578 270.858)">
      <g id="组_937" data-name="组 937">
        <g id="组_936" data-name="组 936">
          <g id="组_935" data-name="组 935">
            <path id="路径_664" data-name="路径 664" d="M161.9-110.858h-8.3a1.528,1.528,0,0,0-1.529,1.528v13.943a1.529,1.529,0,0,0,1.529,1.529h10.786a1.529,1.529,0,0,0,1.529-1.529v-11.455Z" fill="#e6e6e6"/>
            <path id="路径_665" data-name="路径 665" d="M161.9-110.858v2.488a1.528,1.528,0,0,0,1.528,1.528h2.489Z" fill="#88c057"/>
          </g>
        </g>
      </g>
      <g id="组_982" data-name="组 982">
        <g id="组_938" data-name="组 938">
          <path id="路径_666" data-name="路径 666" d="M162.825-97.8h-7.649l.667-3.477h6.316Z" fill="#ccc"/>
          <path id="路径_667" data-name="路径 667" d="M159.206-98.242h-.411l.012-1.115h.388Z" fill="#fff"/>
          <path id="路径_668" data-name="路径 668" d="M159.188-99.916h-.376l.01-.937h.356Z" fill="#fff"/>
        </g>
        <g id="组_981" data-name="组 981">
          <path id="路径_669" data-name="路径 669" d="M161.6-106.912H156.4a.256.256,0,0,0-.256.256v5.859h5.722v-5.859A.256.256,0,0,0,161.6-106.912Z" fill="#d56455"/>
          <rect id="矩形_714" data-name="矩形 714" width="5.443" height="4.992" transform="translate(161.496 -106.576) rotate(90)" fill="#666"/>
          <path id="路径_670" data-name="路径 670" d="M163.443-106.847l-1.947.271v5.443l1.947.271a.1.1,0,0,0,.11-.1v-5.795A.1.1,0,0,0,163.443-106.847Z" fill="#ed7b72"/>
          <path id="路径_671" data-name="路径 671" d="M154.557-106.847l1.947.271v5.443l-1.947.271a.1.1,0,0,1-.11-.1v-5.795A.1.1,0,0,1,154.557-106.847Z" fill="#ed7b72"/>
          <rect id="矩形_715" data-name="矩形 715" width="6.025" height="0.737" rx="0.15" transform="translate(155.988 -100.797)" fill="#666"/>
          <g id="组_941" data-name="组 941">
            <g id="组_939" data-name="组 939">
              <rect id="矩形_716" data-name="矩形 716" width="0.903" height="0.258" transform="translate(160.907 -100.558)" fill="#fc6"/>
              <rect id="矩形_717" data-name="矩形 717" width="0.452" height="0.258" transform="translate(161.359 -100.558)" fill="#92d3ff"/>
            </g>
            <g id="组_940" data-name="组 940">
              <rect id="矩形_718" data-name="矩形 718" width="0.903" height="0.258" transform="translate(157.093 -100.3) rotate(180)" fill="#fc6"/>
              <rect id="矩形_719" data-name="矩形 719" width="0.452" height="0.258" transform="translate(156.641 -100.3) rotate(180)" fill="#92d3ff"/>
            </g>
          </g>
          <g id="组_942" data-name="组 942">
            <path id="路径_672" data-name="路径 672" d="M160.659-100.06v.969a.137.137,0,0,0,.137.137h.743a.137.137,0,0,0,.137-.137v-.969Z" fill="#515151"/>
            <path id="路径_673" data-name="路径 673" d="M156.324-100.06v.969a.137.137,0,0,0,.137.137h.743a.137.137,0,0,0,.137-.137v-.969Z" fill="#515151"/>
          </g>
          <g id="组_980" data-name="组 980">
            <g id="组_967" data-name="组 967">
              <g id="组_954" data-name="组 954">
                <path id="矩形_720" data-name="矩形 720" d="M.269,0H1.762A.268.268,0,0,1,2.03.268V1.762a.269.269,0,0,1-.269.269H.268A.268.268,0,0,1,0,1.762V.269A.269.269,0,0,1,.269,0Z" transform="translate(156.911 -103.164)" fill="#fc6"/>
                <path id="路径_674" data-name="路径 674" d="M158.215-102.741l-.06-.061-.065.061-.079-.061-.085.061-.083-.061-.082.061-.066-.061-.058.061v-.423h.578Z" fill="#fff"/>
                <g id="组_953" data-name="组 953">
                  <g id="组_946" data-name="组 946">
                    <g id="组_944" data-name="组 944">
                      <g id="组_943" data-name="组 943">
                        <path id="路径_675" data-name="路径 675" d="M158.473-101.676l-.041-.041h-.006l-.041.041a0,0,0,0,0,0,.007h.02v.177h.042v-.177h.02Z" fill="#666"/>
                        <path id="路径_676" data-name="路径 676" d="M158.58-101.676l-.041-.041h-.006l-.041.041a0,0,0,0,0,0,.007h.02v.177h.042v-.177h.02A0,0,0,0,0,158.58-101.676Z" fill="#666"/>
                      </g>
                      <rect id="矩形_721" data-name="矩形 721" width="0.198" height="0.013" transform="translate(158.383 -101.478)" fill="#666"/>
                    </g>
                    <g id="组_945" data-name="组 945">
                      <path id="路径_677" data-name="路径 677" d="M158.727-101.347h-.489v-.489h.489Zm-.454-.036h.418v-.417h-.418Z" fill="#666"/>
                    </g>
                  </g>
                  <g id="组_948" data-name="组 948">
                    <path id="路径_678" data-name="路径 678" d="M158.005-101.637v-.081h-.158v.081a.079.079,0,0,0,.067.078v.075c-.024,0-.042.009-.045.019h.114c0-.01-.021-.018-.045-.019v-.075A.079.079,0,0,0,158.005-101.637Z" fill="#666"/>
                    <g id="组_947" data-name="组 947">
                      <path id="路径_679" data-name="路径 679" d="M158.17-101.347h-.488v-.489h.488Zm-.453-.036h.418v-.417h-.418Z" fill="#666"/>
                    </g>
                  </g>
                  <g id="组_952" data-name="组 952">
                    <g id="组_950" data-name="组 950">
                      <path id="路径_680" data-name="路径 680" d="M157.512-101.614l-.018,0a.077.077,0,0,0-.062.027.08.08,0,0,0-.062-.027.077.077,0,0,0-.062.027.08.08,0,0,0-.062-.027l-.018,0a.148.148,0,0,1,.142-.094A.15.15,0,0,1,157.512-101.614Z" fill="#666"/>
                      <g id="组_949" data-name="组 949">
                        <path id="路径_681" data-name="路径 681" d="M157.347-101.464a.028.028,0,0,1-.028-.029v-.015l.005-.006.006.006v.015a.018.018,0,0,0,.017.017.018.018,0,0,0,.017-.017v-.22l.006-.006.006.006v.22A.029.029,0,0,1,157.347-101.464Z" fill="#666"/>
                      </g>
                    </g>
                    <g id="组_951" data-name="组 951">
                      <path id="路径_682" data-name="路径 682" d="M157.614-101.347h-.489v-.489h.489Zm-.453-.036h.418v-.417h-.418Z" fill="#666"/>
                    </g>
                  </g>
                </g>
              </g>
              <g id="组_966" data-name="组 966">
                <path id="矩形_722" data-name="矩形 722" d="M.269,0H1.762A.268.268,0,0,1,2.03.268V1.762a.269.269,0,0,1-.269.269H.268A.268.268,0,0,1,0,1.762V.269A.269.269,0,0,1,.269,0Z" transform="translate(159.059 -103.164)" fill="#fc6"/>
                <path id="路径_683" data-name="路径 683" d="M160.363-102.741l-.06-.061-.065.061-.079-.061-.086.061-.083-.061-.082.061-.065-.061-.058.061v-.423h.578Z" fill="#fff"/>
                <g id="组_965" data-name="组 965">
                  <g id="组_958" data-name="组 958">
                    <g id="组_956" data-name="组 956">
                      <g id="组_955" data-name="组 955">
                        <path id="路径_684" data-name="路径 684" d="M160.621-101.676l-.041-.041h-.006l-.042.041a0,0,0,0,0,0,.007h.02v.177h.042v-.177h.02Z" fill="#666"/>
                        <path id="路径_685" data-name="路径 685" d="M160.728-101.676l-.041-.041h-.006l-.041.041a0,0,0,0,0,0,.007h.02v.177h.042v-.177h.02Z" fill="#666"/>
                      </g>
                      <rect id="矩形_723" data-name="矩形 723" width="0.198" height="0.013" transform="translate(160.531 -101.478)" fill="#666"/>
                    </g>
                    <g id="组_957" data-name="组 957">
                      <path id="路径_686" data-name="路径 686" d="M160.874-101.347h-.488v-.489h.488Zm-.453-.036h.418v-.417h-.418Z" fill="#666"/>
                    </g>
                  </g>
                  <g id="组_960" data-name="组 960">
                    <path id="路径_687" data-name="路径 687" d="M160.153-101.637v-.081h-.158v.081a.079.079,0,0,0,.067.078v.075c-.024,0-.042.009-.045.019h.114c0-.01-.021-.018-.045-.019v-.075A.079.079,0,0,0,160.153-101.637Z" fill="#666"/>
                    <g id="组_959" data-name="组 959">
                      <path id="路径_688" data-name="路径 688" d="M160.318-101.347h-.488v-.489h.488Zm-.453-.036h.418v-.417h-.418Z" fill="#666"/>
                    </g>
                  </g>
                  <g id="组_964" data-name="组 964">
                    <g id="组_962" data-name="组 962">
                      <path id="路径_689" data-name="路径 689" d="M159.66-101.614l-.019,0a.08.08,0,0,0-.062.027.076.076,0,0,0-.061-.027.081.081,0,0,0-.063.027.076.076,0,0,0-.061-.027l-.018,0a.148.148,0,0,1,.142-.094A.15.15,0,0,1,159.66-101.614Z" fill="#666"/>
                      <g id="组_961" data-name="组 961">
                        <path id="路径_690" data-name="路径 690" d="M159.495-101.464a.028.028,0,0,1-.028-.029v-.015l.005-.006.006.006v.015a.018.018,0,0,0,.017.017.018.018,0,0,0,.017-.017v-.22l.006-.006,0,.006v.22A.028.028,0,0,1,159.495-101.464Z" fill="#666"/>
                      </g>
                    </g>
                    <g id="组_963" data-name="组 963">
                      <path id="路径_691" data-name="路径 691" d="M159.762-101.347h-.489v-.489h.489Zm-.453-.036h.418v-.417h-.418Z" fill="#666"/>
                    </g>
                  </g>
                </g>
              </g>
            </g>
            <g id="组_979" data-name="组 979">
              <rect id="矩形_724" data-name="矩形 724" width="2.031" height="2.03" rx="0.269" transform="translate(158.005 -105.288)" fill="#fc6"/>
              <path id="路径_692" data-name="路径 692" d="M159.309-104.866l-.06-.062-.065.062-.079-.062-.085.062-.083-.062-.082.062-.066-.062-.058.062v-.423h.578Z" fill="#fff"/>
              <g id="组_978" data-name="组 978">
                <g id="组_971" data-name="组 971">
                  <g id="组_969" data-name="组 969">
                    <g id="组_968" data-name="组 968">
                      <path id="路径_693" data-name="路径 693" d="M159.567-103.8l-.041-.041h-.006l-.041.041,0,.008h.02v.176h.041v-.176h.021S159.569-103.8,159.567-103.8Z" fill="#666"/>
                      <path id="路径_694" data-name="路径 694" d="M159.674-103.8l-.041-.041h-.006l-.041.041,0,.008h.02v.176h.042v-.176h.02S159.676-103.8,159.674-103.8Z" fill="#666"/>
                    </g>
                    <rect id="矩形_725" data-name="矩形 725" width="0.198" height="0.013" transform="translate(159.477 -103.603)" fill="#666"/>
                  </g>
                  <g id="组_970" data-name="组 970">
                    <path id="路径_695" data-name="路径 695" d="M159.82-103.472h-.488v-.489h.488Zm-.453-.036h.418v-.417h-.418Z" fill="#666"/>
                  </g>
                </g>
                <g id="组_973" data-name="组 973">
                  <path id="路径_696" data-name="路径 696" d="M159.1-103.762v-.081h-.158v.081a.079.079,0,0,0,.067.078v.075c-.024,0-.042.009-.045.019h.114c0-.01-.021-.017-.045-.019v-.075A.079.079,0,0,0,159.1-103.762Z" fill="#666"/>
                  <g id="组_972" data-name="组 972">
                    <path id="路径_697" data-name="路径 697" d="M159.264-103.472h-.488v-.489h.488Zm-.453-.036h.418v-.417h-.418Z" fill="#666"/>
                  </g>
                </g>
                <g id="组_977" data-name="组 977">
                  <g id="组_975" data-name="组 975">
                    <path id="路径_698" data-name="路径 698" d="M158.6-103.739l-.017,0a.077.077,0,0,0-.062.027.08.08,0,0,0-.062-.027.077.077,0,0,0-.062.027.08.08,0,0,0-.062-.027l-.018,0a.148.148,0,0,1,.142-.094A.148.148,0,0,1,158.6-103.739Z" fill="#666"/>
                    <g id="组_974" data-name="组 974">
                      <path id="路径_699" data-name="路径 699" d="M158.441-103.589a.028.028,0,0,1-.028-.029v-.015l.005-.006.006.006v.015a.018.018,0,0,0,.017.017.018.018,0,0,0,.017-.017v-.22l.006-.005,0,.005v.22A.028.028,0,0,1,158.441-103.589Z" fill="#666"/>
                    </g>
                  </g>
                  <g id="组_976" data-name="组 976">
                    <path id="路径_700" data-name="路径 700" d="M158.708-103.472h-.489v-.489h.489Zm-.453-.036h.417v-.417h-.417Z" fill="#666"/>
                  </g>
                </g>
              </g>
            </g>
          </g>
        </g>
      </g>
    </g>
  </g>
</svg>
