<svg xmlns="http://www.w3.org/2000/svg" width="34" height="34" viewBox="0 0 34 34">
  <g id="组_142" data-name="组 142" transform="translate(-85.5 32)">
    <path id="路径_99" data-name="路径 99" d="M17,0A17,17,0,1,1,0,17,17,17,0,0,1,17,0Z" transform="translate(85.5 -32)" fill="#01c853" opacity="0.2"/>
    <g id="组_902" data-name="组 902" transform="translate(-590.741 -279.818)">
      <g id="组_878" data-name="组 878">
        <path id="路径_587" data-name="路径 587" d="M687.744,265.47H685.6v7.667a.145.145,0,0,0,.145.145h.928a.144.144,0,0,0,.144-.127l.584-6.465.585,6.465a.144.144,0,0,0,.143.127h.929a.144.144,0,0,0,.144-.145V265.47Z" fill="#ed7b72"/>
        <path id="路径_588" data-name="路径 588" d="M689.1,260.547c-.087-.041-1.2-.507-1.2-.507l-.472.037-.472-.037s-1.115.466-1.2.507c-.159.074-.46.239-.4.542a12.339,12.339,0,0,1,.011,4.145.394.394,0,0,0,.381.487h3.365a.394.394,0,0,0,.382-.487,12.284,12.284,0,0,1,.011-4.145C689.565,260.786,689.263,260.621,689.1,260.547Z" fill="#54bbff"/>
        <path id="路径_589" data-name="路径 589" d="M687.623,260.66l-.176.245-.184-.238a.547.547,0,0,1-.533-.581v-1.243h1.434v1.243A.547.547,0,0,1,687.623,260.66Z" fill="#e7b95d"/>
        <g id="组_868" data-name="组 868">
          <g id="组_865" data-name="组 865">
            <path id="路径_590" data-name="路径 590" d="M687.447,257.519a1.218,1.218,0,0,0-1.135,1.286,1.159,1.159,0,1,0,2.27,0A1.217,1.217,0,0,0,687.447,257.519Z" fill="#fc6"/>
            <g id="组_864" data-name="组 864">
              <g id="组_862" data-name="组 862">
                <path id="路径_591" data-name="路径 591" d="M688.277,257.977c-.18-.039-.228.17-.228.17a1.343,1.343,0,0,1,.283.914.067.067,0,0,0,.133,0,1.372,1.372,0,0,1,.1-.517C688.661,258.376,688.458,258.017,688.277,257.977Z" fill="#666"/>
                <path id="路径_592" data-name="路径 592" d="M688.626,258.512c-.084-.011-.17.123-.191.3s.03.329.114.34.169-.123.191-.3S688.71,258.523,688.626,258.512Z" fill="#fc6"/>
              </g>
              <g id="组_863" data-name="组 863">
                <path id="路径_593" data-name="路径 593" d="M686.617,257.977c.181-.039.228.17.228.17a1.346,1.346,0,0,0-.282.914.067.067,0,0,1-.067.068.068.068,0,0,1-.067-.064,1.354,1.354,0,0,0-.1-.517C686.234,258.376,686.437,258.017,686.617,257.977Z" fill="#666"/>
                <path id="路径_594" data-name="路径 594" d="M686.269,258.512c.084-.011.169.123.191.3s-.03.329-.114.34-.17-.123-.191-.3S686.184,258.523,686.269,258.512Z" fill="#fc6"/>
              </g>
            </g>
          </g>
          <g id="组_867" data-name="组 867">
            <g id="组_866" data-name="组 866">
              <path id="路径_595" data-name="路径 595" d="M688.619,257.856a1.161,1.161,0,0,0-.67-.89l0,0c-.039-.019-.063-.028-.063-.028h0a1.121,1.121,0,0,0-.866,0h0a1.2,1.2,0,0,0-.737.92,1.493,1.493,0,0,0,.048.574.08.08,0,0,0,.1.055l1.027-.272,1.028.272a.081.081,0,0,0,.1-.055A1.477,1.477,0,0,0,688.619,257.856Z" fill="#92d3ff"/>
              <path id="路径_596" data-name="路径 596" d="M688.225,258.124c0-.044,0-.092-.006-.143s-.015-.1-.022-.158a1.544,1.544,0,0,0-.038-.167,1.51,1.51,0,0,0-.058-.167c-.022-.055-.051-.107-.077-.159a1.463,1.463,0,0,0-.1-.141,1.109,1.109,0,0,0-.215-.212.949.949,0,0,0-.235-.134h-.058a.93.93,0,0,0-.234.134,1,1,0,0,0-.109.093,1.126,1.126,0,0,0-.107.119,1.467,1.467,0,0,0-.1.141c-.027.052-.056.1-.078.159a1.307,1.307,0,0,0-.057.167,1.331,1.331,0,0,0-.038.167c-.008.055-.017.108-.022.158s-.005.1-.006.143a1.964,1.964,0,0,0,0,.214l0,.081.07-.007-.006-.079a1.9,1.9,0,0,1-.009-.208l0-.139c.005-.049.012-.1.019-.154a1.533,1.533,0,0,1,.085-.324,1.658,1.658,0,0,1,.072-.154,1.432,1.432,0,0,1,.09-.138,1.1,1.1,0,0,1,.2-.21.987.987,0,0,1,.227-.135l-.019,1.342h.071l-.02-1.341a.96.96,0,0,1,.223.134,1.062,1.062,0,0,1,.1.092.981.981,0,0,1,.1.118,1.264,1.264,0,0,1,.091.138c.025.05.051.1.072.154a1.693,1.693,0,0,1,.052.162,1.465,1.465,0,0,1,.033.162c.006.054.014.105.018.154s0,.1,0,.139a1.872,1.872,0,0,1-.009.208l-.005.079.069.007,0-.081A1.907,1.907,0,0,0,688.225,258.124Z" fill="#54bbff"/>
              <path id="路径_597" data-name="路径 597" d="M686.411,258.486a1.839,1.839,0,0,0,.135.372.162.162,0,0,0,.228.078,1.35,1.35,0,0,1,1.347,0,.162.162,0,0,0,.228-.078,1.928,1.928,0,0,0,.135-.372A2.041,2.041,0,0,0,686.411,258.486Z" fill="#48a0dc"/>
            </g>
            <path id="路径_598" data-name="路径 598" d="M687.447,256.818c-.074,0-.134.023-.134.051s.06.051.134.051.135-.023.135-.051S687.521,256.818,687.447,256.818Z" fill="#48a0dc"/>
          </g>
        </g>
        <path id="路径_599" data-name="路径 599" d="M688.162,260.064a1.3,1.3,0,0,1-.517.549.361.361,0,0,0-.135.1.079.079,0,1,1-.144,0,.362.362,0,0,0-.135-.1,1.219,1.219,0,0,1-.5-.549,2.524,2.524,0,0,0-.268.2l.369.691a.086.086,0,0,0,.118.039,1.046,1.046,0,0,0,.319-.3,10.442,10.442,0,0,1-.007,1.071.063.063,0,0,0,.063.068h.228a.063.063,0,0,0,.063-.068c-.023-.237-.011-.887-.007-1.071a1.047,1.047,0,0,0,.319.3.087.087,0,0,0,.118-.039l.39-.683A2.527,2.527,0,0,0,688.162,260.064Z" fill="#ed7b72"/>
        <path id="路径_600" data-name="路径 600" d="M687.447,261.068a.066.066,0,1,0,.066.065A.066.066,0,0,0,687.447,261.068Z" fill="#fff"/>
        <path id="路径_601" data-name="路径 601" d="M687.447,261.467a.066.066,0,1,0,.066.066A.067.067,0,0,0,687.447,261.467Z" fill="#fff"/>
        <path id="路径_602" data-name="路径 602" d="M689.185,273.394c-.168-.231-.267-.515-.6-.515h0c-.331,0-.429.284-.6.515a.314.314,0,0,0-.061.18.245.245,0,0,0,.248.244H689a.245.245,0,0,0,.248-.244A.321.321,0,0,0,689.185,273.394Z" fill="#666"/>
        <path id="路径_603" data-name="路径 603" d="M686.793,273.394c-.168-.231-.267-.515-.6-.515h0c-.33,0-.428.284-.6.515a.32.32,0,0,0-.06.18.245.245,0,0,0,.249.244h.818a.245.245,0,0,0,.248-.244A.321.321,0,0,0,686.793,273.394Z" fill="#666"/>
        <g id="组_875" data-name="组 875">
          <rect id="矩形_676" data-name="矩形 676" width="3.139" height="3.139" rx="0.415" transform="translate(685.861 262.733)" fill="#fc6"/>
          <g id="组_873" data-name="组 873">
            <g id="组_870" data-name="组 870">
              <path id="路径_604" data-name="路径 604" d="M688.742,265.266a.212.212,0,0,0-.044-.005.21.21,0,0,1-.308,0,.2.2,0,0,0-.154.067.2.2,0,0,0-.153-.067.23.23,0,0,0-.045.005.383.383,0,0,1,.7,0Z" fill="#666"/>
              <g id="组_869" data-name="组 869">
                <path id="路径_605" data-name="路径 605" d="M688.334,265.638a.071.071,0,0,1-.07-.07v-.039a.015.015,0,0,1,.014-.015.015.015,0,0,1,.015.015v.039a.041.041,0,0,0,.041.041.041.041,0,0,0,.042-.041v-.547a.014.014,0,0,1,.014-.014.015.015,0,0,1,.015.014v.547A.071.071,0,0,1,688.334,265.638Z" fill="#666"/>
              </g>
            </g>
            <g id="组_872" data-name="组 872">
              <g id="组_871" data-name="组 871">
                <path id="路径_606" data-name="路径 606" d="M687.728,265.114l-.1-.1a.009.009,0,0,0-.015,0l-.1.1a.01.01,0,0,0,.007.018h.05v.439h.1v-.439h.05A.011.011,0,0,0,687.728,265.114Z" fill="#666"/>
                <path id="路径_607" data-name="路径 607" d="M687.994,265.114l-.1-.1a.008.008,0,0,0-.014,0l-.1.1a.01.01,0,0,0,.007.018h.05v.439h.1v-.439h.05A.011.011,0,0,0,687.994,265.114Z" fill="#666"/>
              </g>
              <rect id="矩形_677" data-name="矩形 677" width="0.491" height="0.031" transform="translate(687.506 265.606)" fill="#666"/>
            </g>
            <path id="路径_608" data-name="路径 608" d="M687.376,265.211v-.2h-.391v.2a.2.2,0,0,0,.166.193v.185c-.059.005-.1.024-.112.048h.283c-.007-.024-.053-.043-.112-.048V265.4A.2.2,0,0,0,687.376,265.211Z" fill="#666"/>
          </g>
          <g id="组_874" data-name="组 874">
            <rect id="矩形_678" data-name="矩形 678" width="1.338" height="0.736" transform="translate(686.189 263.66)" fill="#fff"/>
            <rect id="矩形_679" data-name="矩形 679" width="0.512" height="0.052" transform="translate(686.38 263.835)" fill="#ed7b72"/>
            <rect id="矩形_680" data-name="矩形 680" width="0.955" height="0.052" transform="translate(686.38 264.002)" fill="#ccc"/>
            <rect id="矩形_681" data-name="矩形 681" width="0.955" height="0.052" transform="translate(686.38 264.169)" fill="#ccc"/>
          </g>
          <path id="路径_609" data-name="路径 609" d="M687.878,263.387l-.092-.1-.1.1-.122-.1-.132.1-.129-.1-.128.1-.1-.1-.09.1v-.654h.894Z" fill="#e0ae55" opacity="0.5"/>
        </g>
        <g id="组_876" data-name="组 876">
          <path id="路径_610" data-name="路径 610" d="M685.906,265.788l-.314-.38.264-.342.208.036a1.358,1.358,0,0,1,.5.352.078.078,0,0,1,0,.106.08.08,0,0,1-.115.006.526.526,0,0,0-.308-.172c0,.449.31.472.458.458a.116.116,0,0,1,.055.222.711.711,0,0,1-.752-.286Z" fill="#fff"/>
          <path id="路径_611" data-name="路径 611" d="M686.006,264.932a2.2,2.2,0,0,1-.49-2.493l-.016-1.731s-2.87,2.668.056,4.862a.1.1,0,0,0,.14-.027l.334-.467A.1.1,0,0,0,686.006,264.932Z" fill="#ed7b72"/>
        </g>
        <g id="组_877" data-name="组 877">
          <path id="路径_612" data-name="路径 612" d="M688.956,265.788l.314-.38-.264-.342-.208.036a1.37,1.37,0,0,0-.5.352.079.079,0,0,0,.112.112.526.526,0,0,1,.308-.172c0,.449-.31.472-.459.458a.115.115,0,0,0-.054.222c.329.131.623-.14.752-.286Z" fill="#fff"/>
          <path id="路径_613" data-name="路径 613" d="M688.856,264.932a2.2,2.2,0,0,0,.49-2.493l.016-1.731s2.869,2.668-.056,4.862a.1.1,0,0,1-.141-.027l-.333-.467A.1.1,0,0,1,688.856,264.932Z" fill="#ed7b72"/>
        </g>
      </g>
      <g id="组_901" data-name="组 901">
        <g id="组_893" data-name="组 893">
          <g id="组_885" data-name="组 885">
            <path id="矩形_682" data-name="矩形 682" d="M.686,0H4.5a.686.686,0,0,1,.686.686V4.5a.685.685,0,0,1-.685.685H.686A.686.686,0,0,1,0,4.5V.686A.686.686,0,0,1,.686,0Z" transform="translate(690.508 268.623)" fill="#fc6"/>
            <g id="组_883" data-name="组 883">
              <g id="组_880" data-name="组 880">
                <path id="路径_614" data-name="路径 614" d="M695.265,272.8a.293.293,0,0,0-.073-.008.345.345,0,0,1-.507,0,.347.347,0,0,1-.509,0,.292.292,0,0,0-.073.008.632.632,0,0,1,1.162,0Z" fill="#666"/>
                <g id="组_879" data-name="组 879">
                  <path id="路径_615" data-name="路径 615" d="M694.592,273.419a.117.117,0,0,1-.117-.117v-.064a.024.024,0,0,1,.048,0v.064a.068.068,0,1,0,.137,0v-.9a.024.024,0,0,1,.048,0v.9A.117.117,0,0,1,694.592,273.419Z" fill="#666"/>
                </g>
              </g>
              <g id="组_882" data-name="组 882">
                <g id="组_881" data-name="组 881">
                  <path id="路径_616" data-name="路径 616" d="M693.59,272.554l-.168-.168a.018.018,0,0,0-.025,0l-.168.168a.018.018,0,0,0,.013.03h.081v.724h.173v-.724h.081A.018.018,0,0,0,693.59,272.554Z" fill="#666"/>
                  <path id="路径_617" data-name="路径 617" d="M694.029,272.554l-.168-.168a.018.018,0,0,0-.025,0l-.168.168a.018.018,0,0,0,.013.03h.081v.724h.173v-.724h.081A.018.018,0,0,0,694.029,272.554Z" fill="#666"/>
                </g>
                <rect id="矩形_683" data-name="矩形 683" width="0.81" height="0.052" transform="translate(693.224 273.367)" fill="#666"/>
              </g>
              <path id="路径_618" data-name="路径 618" d="M693.009,272.714v-.333h-.645v.333a.322.322,0,0,0,.274.318v.3c-.1.009-.173.04-.185.08h.468c-.013-.04-.088-.071-.185-.08v-.3A.322.322,0,0,0,693.009,272.714Z" fill="#666"/>
            </g>
            <g id="组_884" data-name="组 884">
              <rect id="矩形_684" data-name="矩形 684" width="2.21" height="1.215" transform="translate(691.05 270.153)" fill="#fff"/>
              <rect id="矩形_685" data-name="矩形 685" width="0.845" height="0.085" transform="translate(691.366 270.442)" fill="#ed7b72"/>
              <rect id="矩形_686" data-name="矩形 686" width="1.577" height="0.086" transform="translate(691.366 270.718)" fill="#ccc"/>
              <rect id="矩形_687" data-name="矩形 687" width="1.577" height="0.086" transform="translate(691.366 270.994)" fill="#ccc"/>
            </g>
            <path id="路径_619" data-name="路径 619" d="M693.838,269.7l-.152-.157-.166.157-.2-.157-.218.157-.212-.157-.21.157-.167-.157-.149.157v-1.079h1.477Z" fill="#e0ae55" opacity="0.5"/>
          </g>
          <g id="组_892" data-name="组 892">
            <path id="矩形_688" data-name="矩形 688" d="M.685,0H4.5a.686.686,0,0,1,.686.686V4.5a.686.686,0,0,1-.686.686H.685A.685.685,0,0,1,0,4.5V.685A.685.685,0,0,1,.685,0Z" transform="translate(696.064 268.623)" fill="#fc6"/>
            <g id="组_890" data-name="组 890">
              <g id="组_887" data-name="组 887">
                <path id="路径_620" data-name="路径 620" d="M700.821,272.8a.293.293,0,0,0-.073-.008.346.346,0,0,1-.508,0,.346.346,0,0,1-.508,0,.306.306,0,0,0-.074.008.632.632,0,0,1,1.163,0Z" fill="#666"/>
                <g id="组_886" data-name="组 886">
                  <path id="路径_621" data-name="路径 621" d="M700.147,273.419a.117.117,0,0,1-.116-.117v-.064a.023.023,0,0,1,.023-.023.023.023,0,0,1,.024.023v.064a.069.069,0,1,0,.138,0v-.9a.023.023,0,0,1,.024-.023.023.023,0,0,1,.023.023v.9A.117.117,0,0,1,700.147,273.419Z" fill="#666"/>
                </g>
              </g>
              <g id="组_889" data-name="组 889">
                <g id="组_888" data-name="组 888">
                  <path id="路径_622" data-name="路径 622" d="M699.146,272.554l-.168-.168a.018.018,0,0,0-.025,0l-.169.168a.018.018,0,0,0,.013.03h.082v.724h.172v-.724h.082A.018.018,0,0,0,699.146,272.554Z" fill="#666"/>
                  <path id="路径_623" data-name="路径 623" d="M699.584,272.554l-.168-.168a.018.018,0,0,0-.025,0l-.168.168a.018.018,0,0,0,.013.03h.082v.724h.172v-.724h.082A.017.017,0,0,0,699.584,272.554Z" fill="#666"/>
                </g>
                <rect id="矩形_689" data-name="矩形 689" width="0.81" height="0.052" transform="translate(698.779 273.367)" fill="#666"/>
              </g>
              <path id="路径_624" data-name="路径 624" d="M698.565,272.714v-.333h-.646v.333a.323.323,0,0,0,.274.318v.3c-.1.009-.172.04-.185.08h.468c-.012-.04-.087-.071-.185-.08v-.3A.322.322,0,0,0,698.565,272.714Z" fill="#666"/>
            </g>
            <g id="组_891" data-name="组 891">
              <rect id="矩形_690" data-name="矩形 690" width="2.209" height="1.215" transform="translate(696.605 270.153)" fill="#fff"/>
              <rect id="矩形_691" data-name="矩形 691" width="0.845" height="0.085" transform="translate(696.921 270.442)" fill="#ed7b72"/>
              <rect id="矩形_692" data-name="矩形 692" width="1.577" height="0.086" transform="translate(696.921 270.718)" fill="#ccc"/>
              <rect id="矩形_693" data-name="矩形 693" width="1.577" height="0.086" transform="translate(696.921 270.994)" fill="#ccc"/>
            </g>
            <path id="路径_625" data-name="路径 625" d="M699.393,269.7l-.152-.157-.166.157-.2-.157-.218.157-.212-.157-.21.157-.167-.157-.149.157v-1.079h1.477Z" fill="#e0ae55" opacity="0.5"/>
          </g>
        </g>
        <g id="组_900" data-name="组 900">
          <path id="矩形_694" data-name="矩形 694" d="M.686,0H4.5a.685.685,0,0,1,.685.685V4.5a.686.686,0,0,1-.686.686H.685A.685.685,0,0,1,0,4.5V.686A.686.686,0,0,1,.686,0Z" transform="translate(693.286 263.095)" fill="#fc6"/>
          <g id="组_898" data-name="组 898">
            <g id="组_895" data-name="组 895">
              <path id="路径_626" data-name="路径 626" d="M698.043,267.276a.3.3,0,0,0-.073-.008.345.345,0,0,1-.507,0,.335.335,0,0,0-.256.111.328.328,0,0,0-.253-.111.3.3,0,0,0-.074.008.633.633,0,0,1,1.163,0Z" fill="#666"/>
              <g id="组_894" data-name="组 894">
                <path id="路径_627" data-name="路径 627" d="M697.369,267.89a.116.116,0,0,1-.116-.116v-.064a.024.024,0,0,1,.024-.024.023.023,0,0,1,.023.024v.064a.069.069,0,1,0,.138,0v-.9a.024.024,0,0,1,.048,0v.9A.117.117,0,0,1,697.369,267.89Z" fill="#666"/>
              </g>
            </g>
            <g id="组_897" data-name="组 897">
              <g id="组_896" data-name="组 896">
                <path id="路径_628" data-name="路径 628" d="M696.368,267.026l-.168-.168a.018.018,0,0,0-.025,0l-.168.168a.017.017,0,0,0,.012.03h.082v.723h.172v-.723h.082A.018.018,0,0,0,696.368,267.026Z" fill="#666"/>
                <path id="路径_629" data-name="路径 629" d="M696.807,267.026l-.168-.168a.017.017,0,0,0-.025,0l-.168.168a.017.017,0,0,0,.012.03h.082v.723h.172v-.723h.082A.018.018,0,0,0,696.807,267.026Z" fill="#666"/>
              </g>
              <rect id="矩形_695" data-name="矩形 695" width="0.81" height="0.052" transform="translate(696.001 267.839)" fill="#666"/>
            </g>
            <path id="路径_630" data-name="路径 630" d="M695.787,267.186v-.333h-.645v.333a.321.321,0,0,0,.274.317v.306c-.1.008-.173.04-.185.079h.467c-.012-.039-.087-.071-.184-.079V267.5A.321.321,0,0,0,695.787,267.186Z" fill="#666"/>
          </g>
          <g id="组_899" data-name="组 899">
            <rect id="矩形_696" data-name="矩形 696" width="2.209" height="1.215" transform="translate(693.827 264.625)" fill="#fff"/>
            <rect id="矩形_697" data-name="矩形 697" width="0.845" height="0.085" transform="translate(694.143 264.913)" fill="#ed7b72"/>
            <rect id="矩形_698" data-name="矩形 698" width="1.577" height="0.086" transform="translate(694.143 265.189)" fill="#ccc"/>
            <rect id="矩形_699" data-name="矩形 699" width="1.577" height="0.085" transform="translate(694.143 265.465)" fill="#ccc"/>
          </g>
          <path id="路径_631" data-name="路径 631" d="M696.616,264.174l-.152-.157-.166.157-.2-.157-.218.157-.212-.157-.21.157-.167-.157-.149.157v-1.08h1.477Z" fill="#e0ae55" opacity="0.5"/>
        </g>
      </g>
    </g>
  </g>
</svg>
