<svg xmlns="http://www.w3.org/2000/svg" width="34" height="34" viewBox="0 0 34 34"><g transform="translate(-85.5 32)"><circle cx="17" cy="17" r="17" transform="translate(85.5 -32)" fill="#2196f3" opacity="0.2"/><g transform="translate(-35.032 -548.324)"><path d="M137.215,524.324h0a8.707,8.707,0,0,0-8.707,8.707v7.438h17.414v-7.438A8.707,8.707,0,0,0,137.215,524.324Z" fill="#92d3ff"/><rect width="11.346" height="9.383" transform="translate(131.542 531.086)" fill="#666"/><rect width="2.464" height="2.464" rx="0.326" transform="translate(132.079 537.808)" fill="#fc6"/><path d="M133.661,538.325l-.072-.075-.079.075-.1-.075-.1.075-.1-.075-.1.075-.08-.075-.071.075v-.513h.7Z" fill="#fff"/><path d="M134.052,539.711l-.073-.073h-.011l-.073.073a.008.008,0,0,0,.006.013h.035v.315h.075v-.315h.036A.007.007,0,0,0,134.052,539.711Z" fill="#666"/><path d="M134.243,539.711l-.072-.073h-.012l-.073.073a.008.008,0,0,0,.006.013h.035v.315h.075v-.315h.036A.007.007,0,0,0,134.243,539.711Z" fill="#666"/><rect width="0.352" height="0.023" transform="translate(133.893 540.064)" fill="#666"/><path d="M133.733,539.777v-.145h-.281v.145a.14.14,0,0,0,.119.138v.133c-.042,0-.075.017-.081.035h.205c-.006-.018-.039-.031-.081-.035v-.133A.14.14,0,0,0,133.733,539.777Z" fill="#666"/><path d="M133.368,539.821a.163.163,0,0,0-.031,0,.143.143,0,0,0-.111.049.149.149,0,0,0-.221,0,.139.139,0,0,0-.11-.049.164.164,0,0,0-.032,0,.274.274,0,0,1,.5,0Z" fill="#666"/><path d="M133.075,540.088a.051.051,0,0,1-.05-.05v-.028a.01.01,0,1,1,.02,0v.028a.031.031,0,0,0,.03.03.03.03,0,0,0,.03-.03v-.393a.011.011,0,0,1,.011-.01.011.011,0,0,1,.01.01v.393A.05.05,0,0,1,133.075,540.088Z" fill="#666"/><rect width="2.464" height="2.464" rx="0.326" transform="translate(134.686 537.809)" fill="#fc6"/><path d="M136.269,538.325l-.072-.075-.079.075-.1-.075-.1.075-.1-.075-.1.075-.079-.075-.07.075v-.513h.7Z" fill="#fff"/><path d="M136.66,539.711l-.073-.073h-.011l-.073.073a.007.007,0,0,0,0,.013h.036v.315h.075v-.315h.036A.008.008,0,0,0,136.66,539.711Z" fill="#666"/><path d="M136.851,539.711l-.074-.073h-.01l-.073.073a.007.007,0,0,0,.005.013h.036v.315h.075v-.315h.035A.008.008,0,0,0,136.851,539.711Z" fill="#666"/><rect width="0.353" height="0.023" transform="translate(136.5 540.064)" fill="#666"/><path d="M136.34,539.777v-.145h-.28v.145a.14.14,0,0,0,.119.138v.133c-.043,0-.075.017-.081.035h.2c-.006-.018-.039-.031-.081-.035v-.133A.14.14,0,0,0,136.34,539.777Z" fill="#666"/><path d="M135.976,539.821a.164.164,0,0,0-.032,0,.139.139,0,0,0-.11.049.143.143,0,0,0-.111-.049.139.139,0,0,0-.11.049.143.143,0,0,0-.111-.049.164.164,0,0,0-.032,0,.275.275,0,0,1,.506,0Z" fill="#666"/><path d="M135.683,540.088a.051.051,0,0,1-.051-.05v-.028a.011.011,0,0,1,.011-.011.011.011,0,0,1,.01.011v.028a.03.03,0,0,0,.03.03.031.031,0,0,0,.03-.03v-.393a.01.01,0,1,1,.02,0v.393A.051.051,0,0,1,135.683,540.088Z" fill="#666"/><rect width="2.464" height="2.464" rx="0.326" transform="translate(137.293 537.808)" fill="#fc6"/><path d="M138.876,538.325l-.072-.075-.079.075-.1-.075-.1.075-.1-.075-.1.075-.079-.075-.071.075v-.513h.7Z" fill="#fff"/><path d="M139.267,539.711l-.073-.073h-.011l-.073.073a.007.007,0,0,0,.005.013h.036v.315h.075v-.315h.036A.008.008,0,0,0,139.267,539.711Z" fill="#666"/><path d="M139.458,539.711l-.073-.073h-.011l-.073.073a.008.008,0,0,0,.005.013h.036v.315h.075v-.315h.036A.008.008,0,0,0,139.458,539.711Z" fill="#666"/><rect width="0.353" height="0.023" transform="translate(139.108 540.064)" fill="#666"/><path d="M138.948,539.777v-.145h-.281v.145a.139.139,0,0,0,.119.138v.133c-.042,0-.075.017-.081.035h.2c0-.018-.038-.031-.08-.035v-.133A.14.14,0,0,0,138.948,539.777Z" fill="#666"/><path d="M138.583,539.821a.164.164,0,0,0-.032,0,.148.148,0,0,1-.22,0,.142.142,0,0,0-.111.049.143.143,0,0,0-.111-.049.163.163,0,0,0-.031,0,.274.274,0,0,1,.5,0Z" fill="#666"/><path d="M138.29,540.088a.051.051,0,0,1-.051-.05v-.028a.011.011,0,0,1,.011-.011.01.01,0,0,1,.01.011v.028a.031.031,0,0,0,.03.03.03.03,0,0,0,.03-.03v-.393a.011.011,0,0,1,.01-.01.011.011,0,0,1,.011.01v.393A.051.051,0,0,1,138.29,540.088Z" fill="#666"/><rect width="2.464" height="2.464" rx="0.326" transform="translate(139.9 537.808)" fill="#fc6"/><path d="M141.484,538.325l-.073-.075-.079.075-.1-.075-.1.075-.1-.075-.1.075-.079-.075-.071.075v-.513h.7Z" fill="#fff"/><path d="M141.875,539.711l-.074-.073h-.01l-.073.073a.007.007,0,0,0,.005.013h.036v.315h.075v-.315h.035A.008.008,0,0,0,141.875,539.711Z" fill="#666"/><path d="M142.065,539.711l-.073-.073h-.01l-.074.073a.008.008,0,0,0,.006.013h.035v.315h.075v-.315h.036A.007.007,0,0,0,142.065,539.711Z" fill="#666"/><rect width="0.352" height="0.023" transform="translate(141.715 540.064)" fill="#666"/><path d="M141.555,539.777v-.145h-.281v.145a.14.14,0,0,0,.119.138v.133c-.042,0-.075.017-.08.035h.2c-.005-.018-.038-.031-.08-.035v-.133A.14.14,0,0,0,141.555,539.777Z" fill="#666"/><path d="M141.191,539.821a.174.174,0,0,0-.032,0,.143.143,0,0,0-.111.049.141.141,0,0,0-.11-.049.143.143,0,0,0-.111.049.141.141,0,0,0-.11-.049.164.164,0,0,0-.032,0,.275.275,0,0,1,.506,0Z" fill="#666"/><path d="M140.9,540.088a.051.051,0,0,1-.05-.05v-.028a.011.011,0,0,1,.01-.011.01.01,0,0,1,.01.011v.028a.031.031,0,0,0,.03.03.03.03,0,0,0,.03-.03v-.393a.011.011,0,0,1,.011-.01.011.011,0,0,1,.01.01v.393A.051.051,0,0,1,140.9,540.088Z" fill="#666"/><path d="M.326,0H2.138a.326.326,0,0,1,.326.326V2.138a.326.326,0,0,1-.326.326H.325A.325.325,0,0,1,0,2.139V.326A.326.326,0,0,1,.326,0Z" transform="translate(133.382 535.174)" fill="#fc6"/><path d="M134.965,535.69l-.072-.075-.079.075-.1-.075-.1.075-.1-.075-.1.075-.079-.075-.07.075v-.513h.7Z" fill="#fff"/><path d="M135.356,537.076l-.073-.073h-.011l-.073.073a.008.008,0,0,0,.006.013h.035v.315h.075v-.315h.036A.008.008,0,0,0,135.356,537.076Z" fill="#666"/><path d="M135.547,537.076l-.073-.073h-.011l-.073.073a.008.008,0,0,0,.005.013h.036v.315h.075v-.315h.036A.007.007,0,0,0,135.547,537.076Z" fill="#666"/><rect width="0.353" height="0.023" transform="translate(135.197 537.429)" fill="#666"/><path d="M135.037,537.142V537h-.281v.145a.141.141,0,0,0,.119.138v.133c-.043,0-.075.017-.08.035h.2c-.006-.018-.038-.032-.08-.035v-.133A.141.141,0,0,0,135.037,537.142Z" fill="#666"/><path d="M134.672,537.186a.113.113,0,0,0-.032,0,.142.142,0,0,0-.11.048.145.145,0,0,0-.11-.048.148.148,0,0,0-.112.048.14.14,0,0,0-.11-.048.106.106,0,0,0-.031,0,.274.274,0,0,1,.5,0Z" fill="#666"/><path d="M134.379,537.453a.05.05,0,0,1-.05-.051v-.028a.01.01,0,1,1,.02,0v.028a.03.03,0,1,0,.06,0v-.392a.011.011,0,0,1,.011-.01.011.011,0,0,1,.01.01v.392A.051.051,0,0,1,134.379,537.453Z" fill="#666"/><rect width="2.464" height="2.464" rx="0.326" transform="translate(135.989 535.174)" fill="#fc6"/><path d="M137.573,535.69l-.073-.075-.079.075-.1-.075-.1.075-.1-.075-.1.075-.079-.075-.071.075v-.513h.7Z" fill="#fff"/><path d="M137.963,537.076,137.89,537h-.011l-.072.073a.007.007,0,0,0,0,.013h.036v.315h.074v-.315h.036A.007.007,0,0,0,137.963,537.076Z" fill="#666"/><path d="M138.154,537.076l-.073-.073h-.01l-.074.073a.008.008,0,0,0,.006.013h.035v.315h.075v-.315h.036A.007.007,0,0,0,138.154,537.076Z" fill="#666"/><rect width="0.352" height="0.023" transform="translate(137.804 537.429)" fill="#666"/><path d="M137.644,537.142V537h-.281v.145a.141.141,0,0,0,.119.138v.133c-.042,0-.075.017-.08.035h.2c0-.018-.038-.032-.08-.035v-.133A.141.141,0,0,0,137.644,537.142Z" fill="#666"/><path d="M137.279,537.186a.106.106,0,0,0-.031,0,.142.142,0,0,0-.11.048.147.147,0,0,0-.111-.048.146.146,0,0,0-.111.048.142.142,0,0,0-.11-.048.113.113,0,0,0-.032,0,.274.274,0,0,1,.505,0Z" fill="#666"/><path d="M136.986,537.453a.051.051,0,0,1-.05-.051v-.028a.011.011,0,0,1,.01-.01.01.01,0,0,1,.01.01v.028a.03.03,0,0,0,.03.03.029.029,0,0,0,.03-.03v-.392a.011.011,0,0,1,.01-.01.011.011,0,0,1,.011.01v.392A.051.051,0,0,1,136.986,537.453Z" fill="#666"/><rect width="2.464" height="2.464" rx="0.326" transform="translate(138.597 535.174)" fill="#fc6"/><path d="M140.18,535.69l-.072-.075-.079.075-.1-.075-.1.075-.1-.075-.1.075-.079-.075-.07.075v-.513h.7Z" fill="#fff"/><path d="M140.571,537.076,140.5,537h-.011l-.073.073a.007.007,0,0,0,.005.013h.036v.315h.075v-.315h.036A.008.008,0,0,0,140.571,537.076Z" fill="#666"/><path d="M140.762,537.076l-.073-.073h-.011l-.073.073a.007.007,0,0,0,.005.013h.036v.315h.075v-.315h.035A.008.008,0,0,0,140.762,537.076Z" fill="#666"/><rect width="0.353" height="0.023" transform="translate(140.412 537.429)" fill="#666"/><path d="M140.251,537.142V537h-.281v.145a.142.142,0,0,0,.119.138v.133c-.042,0-.074.017-.08.035h.2c-.005-.018-.037-.032-.08-.035v-.133A.14.14,0,0,0,140.251,537.142Z" fill="#666"/><path d="M139.887,537.186a.113.113,0,0,0-.032,0,.146.146,0,0,0-.111.048.142.142,0,0,0-.11-.048.146.146,0,0,0-.111.048.142.142,0,0,0-.11-.048.117.117,0,0,0-.032,0,.275.275,0,0,1,.506,0Z" fill="#666"/><path d="M139.594,537.453a.051.051,0,0,1-.051-.051v-.028a.011.011,0,0,1,.011-.01.011.011,0,0,1,.01.01v.028a.029.029,0,0,0,.03.03.03.03,0,0,0,.03-.03v-.392a.01.01,0,1,1,.02,0v.392A.051.051,0,0,1,139.594,537.453Z" fill="#666"/><path d="M135.964,534.492h-1.15a.191.191,0,0,0-.207.168v.938a.191.191,0,0,0,.207.169h1.15a.191.191,0,0,0,.207-.169v-.938A.19.19,0,0,0,135.964,534.492Z" fill="#fc6"/><path d="M135.612,534.759l-.046-.039-.05.039-.061-.039-.066.039-.064-.039-.064.039-.05-.039-.045.039v-.266h.445Z" fill="#fff"/><path d="M135.86,535.477l-.046-.038h-.007l-.046.038s0,.006,0,.006h.023v.163h.047v-.163h.023S135.864,535.479,135.86,535.477Z" fill="#666"/><path d="M135.982,535.477l-.047-.038h-.007l-.046.038s0,.006,0,.006h.023v.163h.047v-.163h.023C135.983,535.483,135.985,535.479,135.982,535.477Z" fill="#666"/><rect width="0.224" height="0.012" transform="translate(135.759 535.66)" fill="#666"/><path d="M135.657,535.511v-.075h-.178v.075a.079.079,0,0,0,.076.071v.069c-.027,0-.048.009-.051.018h.129c0-.009-.024-.016-.051-.018v-.069A.078.078,0,0,0,135.657,535.511Z" fill="#666"/><path d="M135.426,535.533h-.02a.11.11,0,0,1-.14,0,.1.1,0,0,0-.07.025.1.1,0,0,0-.07-.025H135.1a.193.193,0,0,1,.321,0Z" fill="#666"/><path d="M135.24,535.672a.03.03,0,0,1-.032-.027v-.014l.007-.005.006.005v.014a.018.018,0,0,0,.019.016.017.017,0,0,0,.019-.016v-.2l.007-.005.006.005v.2A.03.03,0,0,1,135.24,535.672Z" fill="#666"/><path d="M137.62,534.492h-1.151a.191.191,0,0,0-.207.168v.938a.191.191,0,0,0,.207.169h1.151a.19.19,0,0,0,.206-.169v-.938A.19.19,0,0,0,137.62,534.492Z" fill="#fc6"/><path d="M137.267,534.759l-.046-.039-.05.039-.061-.039-.066.039-.064-.039-.064.039-.05-.039-.045.039v-.266h.446Z" fill="#fff"/><path d="M137.515,535.477l-.046-.038h-.007l-.046.038s0,.006,0,.006h.023v.163h.047v-.163h.023S137.519,535.479,137.515,535.477Z" fill="#666"/><path d="M137.637,535.477l-.047-.038h-.007l-.046.038s0,.006,0,.006h.023v.163h.048v-.163h.022S137.64,535.479,137.637,535.477Z" fill="#666"/><rect width="0.224" height="0.012" transform="translate(137.414 535.66)" fill="#666"/><path d="M137.313,535.511v-.075h-.178v.075a.078.078,0,0,0,.075.071v.069c-.027,0-.048.009-.051.018h.129c0-.009-.024-.016-.051-.018v-.069A.079.079,0,0,0,137.313,535.511Z" fill="#666"/><path d="M137.081,535.533h-.02a.1.1,0,0,0-.07.025.1.1,0,0,0-.07-.025.1.1,0,0,0-.071.025.1.1,0,0,0-.07-.025h-.02a.193.193,0,0,1,.321,0Z" fill="#666"/><path d="M136.9,535.672a.03.03,0,0,1-.032-.027v-.014l.007-.005.006.005v.014a.018.018,0,0,0,.019.016.017.017,0,0,0,.019-.016v-.2l.007-.005.007.005v.2A.031.031,0,0,1,136.9,535.672Z" fill="#666"/><path d="M146.471,540.469H127.959a.427.427,0,0,0,0,.855h18.512a.427.427,0,1,0,0-.855Z" fill="#e6e6e6"/></g></g></svg>